<svg width="44" height="44" viewBox="0 0 44 44" fill="none" xmlns="http://www.w3.org/2000/svg">
<path fill-rule="evenodd" clip-rule="evenodd" d="M29.2132 7.49492H38.252C41.08 7.49492 43.381 9.79592 43.3801 12.6239V37.881C43.3801 40.709 41.0791 43.01 38.2512 43.01H5.12899C2.30101 43.01 0 40.709 0 37.881V12.6239C0 9.79592 2.30101 7.49492 5.12899 7.49492H14.1678C14.1838 3.36002 17.5514 0 21.6905 0C25.8296 0 29.1972 3.36002 29.2132 7.49492ZM26.6837 7.49492C26.6677 4.75462 24.435 2.5295 21.6905 2.5295C18.946 2.5295 16.7133 4.75378 16.6973 7.49492H26.6837ZM38.2512 10.0244H5.12899C3.69561 10.0244 2.5295 11.1905 2.5295 12.6239V18.0413L21.6905 23.9291L40.8506 18.0413V12.6239C40.8506 11.1905 39.6845 10.0244 38.2512 10.0244ZM2.5295 37.881C2.5295 39.3144 3.69561 40.4805 5.12899 40.4805H38.252C39.6854 40.4805 40.8515 39.3144 40.8515 37.881V20.6871L21.6905 26.5758L2.5295 20.6871V37.881ZM16.0074 27.4392H15.7452C14.9307 27.4392 14.2696 28.1002 14.2696 28.9147V32.3135C14.2696 33.128 14.9307 33.7891 15.7452 33.7891H16.0074C16.8219 33.7891 17.4829 33.128 17.4829 32.3135V28.9147C17.4829 28.1002 16.8219 27.4392 16.0074 27.4392ZM27.6355 27.4392H27.3733C26.5588 27.4392 25.8978 28.1002 25.8978 28.9147V32.3135C25.8978 33.128 26.5588 33.7891 27.3733 33.7891H27.6355C28.45 33.7891 29.1111 33.128 29.1111 32.3135V28.9147C29.1111 28.1002 28.4509 27.4392 27.6355 27.4392Z" fill="white"/>
</svg>
