<svg width="48" height="46" viewBox="0 0 48 46" fill="none" xmlns="http://www.w3.org/2000/svg">
<path fill-rule="evenodd" clip-rule="evenodd" d="M8.00224 13.2673C7.25891 17.3938 7.78992 22.2276 9.58058 27.6373C10.1232 27.5551 10.6787 27.5124 11.2439 27.5124H14.7385L15.1517 24.0339C14.2435 23.3559 13.4055 22.4895 12.6502 21.4508C10.8963 19.0304 9.84929 15.9686 9.84929 13.2602C9.84929 13.0164 9.94616 12.7825 10.1186 12.6101C10.2695 12.4592 10.4674 12.3662 10.6779 12.3453C11.0789 12.2861 12.8118 11.9127 14.5052 11.0635C15.7191 10.4546 16.6357 9.75199 17.2484 8.96233C17.2914 8.87189 17.3492 8.78825 17.4204 8.71521C17.4282 8.7073 17.436 8.69955 17.444 8.69195C17.8173 8.13667 18.0471 7.54076 18.1313 6.90638C18.1472 6.78658 18.1865 6.67108 18.247 6.56648C18.3075 6.46188 18.3881 6.37022 18.484 6.29674C18.6778 6.14834 18.9226 6.083 19.1645 6.11508C19.2843 6.13097 19.3998 6.17029 19.5044 6.23081C19.609 6.29133 19.7007 6.37187 19.7742 6.46781C19.8476 6.56376 19.9015 6.67324 19.9327 6.79C19.9638 6.90676 19.9717 7.02851 19.9558 7.14832C19.8609 7.86284 19.6375 8.54301 19.2911 9.18219C22.0629 11.2549 27.7074 12.2351 28.7723 12.3436C28.9896 12.3608 29.1947 12.4548 29.35 12.6101C29.5224 12.7825 29.6193 13.0164 29.6193 13.2602C29.6193 15.9686 28.5722 19.0304 26.8184 21.4508C26.0645 22.4875 25.2294 23.3525 24.3228 24.0299L24.7365 27.5124H26.3548C27.6387 25.9736 29.0679 24.39 30.6397 22.7651C30.8707 22.5263 31.1001 22.2917 31.3272 22.0615C32.8031 13.7198 30.612 6.92438 25.4368 3.84918C21.4314 1.46837 16.2997 1.85052 12.6731 4.79967C10.2624 6.75925 8.64701 9.68714 8.00224 13.2673ZM22.8828 27.5124L22.5922 25.0532C21.6608 25.4655 20.7038 25.674 19.7357 25.674C18.7692 25.674 17.8142 25.4662 16.8831 25.0551L16.5927 27.5124H22.8828ZM22.9623 22.7366C22.9374 22.7479 22.913 22.7604 22.8891 22.774C22.8298 22.8076 22.7746 22.8476 22.7244 22.8933C21.7533 23.5066 20.7334 23.8351 19.734 23.8351C17.7733 23.8351 15.7338 22.5726 14.1391 20.3716C12.7656 18.4766 11.8876 16.1482 11.7182 14.0064C12.5906 13.7984 13.9708 13.3894 15.3304 12.7076C16.4984 12.1227 17.4595 11.435 18.2003 10.6612C21.007 12.7474 25.7958 13.7218 27.7471 14.0461C27.57 16.1769 26.6945 18.4884 25.3294 20.3716C24.614 21.3579 23.8093 22.1561 22.9623 22.7366ZM11.2439 29.3513H15.5364L15.5558 29.3515L15.5734 29.3513H24.873C22.507 32.3984 20.7427 35.2555 19.6016 37.8936C19.5412 38.0334 19.5164 38.1861 19.5296 38.3379C19.5427 38.4897 19.5934 38.6359 19.6771 38.7632C19.7607 38.8906 19.8747 38.9952 20.0088 39.0676C20.1185 39.1268 20.2388 39.1629 20.3624 39.1741C20.3901 39.1767 20.418 39.1781 20.4461 39.1781C20.5713 39.1786 20.6953 39.1536 20.8104 39.1046C24.5041 37.5062 28.6067 34.6859 33.0364 30.7012C34.2909 31.4659 35.3467 32.5218 36.1119 33.7831C36.9872 35.2258 37.4485 36.8815 37.4455 38.5689V42.5001C37.445 42.9406 37.2698 43.3629 36.9584 43.6744C36.6469 43.9858 36.2246 44.161 35.7841 44.1614H3.68775C3.24727 44.161 2.82497 43.9858 2.51351 43.6744C2.20204 43.3629 2.02686 42.9406 2.02641 42.5001V38.5689C2.02641 33.4889 6.16165 29.3513 11.2439 29.3513ZM35.8475 28.059C35.3733 28.5233 34.9025 28.9752 34.4351 29.4145C35.7476 30.3023 36.8578 31.4655 37.6849 32.8288C38.7347 34.5591 39.2881 36.545 39.2844 38.5689V42.5001C39.283 43.428 38.9138 44.3175 38.2577 44.9736C37.6016 45.6298 36.712 45.999 35.7841 46.0004H3.68775C2.75984 45.999 1.87034 45.6298 1.21421 44.9736C0.558082 44.3175 0.188868 43.428 0.1875 42.5001V38.5689C0.1875 33.6795 3.37764 29.5212 7.78578 28.0662C5.93724 22.4207 5.40124 17.3359 6.19265 12.9414C6.91672 8.92227 8.75677 5.61339 11.5134 3.37279C13.5785 1.68658 16.1121 0.676194 18.7709 0.47862C21.4296 0.281045 24.0847 0.905842 26.3764 2.2683C29.1186 3.89803 31.207 6.48457 32.4166 9.74863C33.5164 12.7169 33.8718 16.1361 33.4802 19.9419C35.5297 17.9802 37.1689 16.564 37.8367 15.9983C37.8896 15.3404 38.0817 14.7284 38.4131 14.1648C40.0428 11.3944 44.5188 10.8083 47.0421 10.7054C47.1692 10.7 47.296 10.7211 47.4145 10.7673C47.533 10.8134 47.6406 10.8836 47.7306 10.9735C47.8206 11.0634 47.8909 11.1709 47.9372 11.2894C47.9835 11.4078 48.0047 11.5346 47.9995 11.6616C47.8966 14.185 47.3099 18.661 44.5401 20.2907C43.9203 20.6548 43.22 20.857 42.5035 20.88C41.684 21.8622 39.1835 24.7912 35.8475 28.059ZM32.6548 23.3349C32.6732 23.3235 32.6912 23.3114 32.7089 23.2987C32.8089 23.2266 32.8934 23.1351 32.9574 23.0297C35.074 20.9038 36.9585 19.1997 38.1191 18.1835C38.2616 18.6386 38.4554 19.1097 38.7004 19.5959C38.789 19.7719 38.9319 19.9147 39.1078 20.0034C39.5447 20.2233 39.9696 20.402 40.3816 20.5394C39.2356 21.8715 37.1603 24.1996 34.562 26.7442C30.2573 30.958 26.1307 34.1902 22.479 36.2237C24.5103 32.5638 27.7383 28.4115 31.9465 24.0598C32.1847 23.8135 32.421 23.5717 32.6548 23.3349ZM43.6068 18.7058C42.7483 19.2109 41.6064 19.1391 40.2106 18.4937C39.5652 17.0979 39.4946 15.9561 40.0008 15.0998C41.0318 13.3431 44.22 12.7868 46.0922 12.6144C45.9175 14.4844 45.3635 17.6714 43.6068 18.7058Z" fill="white"/>
</svg>
