<svg width="44" height="47" viewBox="0 0 44 47" fill="none" xmlns="http://www.w3.org/2000/svg">
<path fill-rule="evenodd" clip-rule="evenodd" d="M27.979 13.6894C27.9793 13.6681 27.9802 13.6469 27.9819 13.6256C27.9872 13.497 27.9898 13.3691 27.9898 13.2423C27.9898 11.9418 27.7065 11.0273 27.1237 10.4444C25.9558 9.28007 23.4542 9.28559 20.556 9.292L20.5452 9.29202H19.1119L18.4293 9.29086C15.8203 9.29086 13.61 9.37071 12.5328 10.4444C11.9499 11.0273 11.6672 11.9407 11.6672 13.2423C11.6672 15.6105 12.5963 18.307 14.1532 20.4555C15.7708 22.6879 17.8394 23.9685 19.8282 23.9685C21.817 23.9685 23.8857 22.6862 25.5038 20.4555C26.9635 18.4411 27.8714 15.9451 27.979 13.6894ZM29.8279 14.0487C30.5648 13.0792 31.11 11.771 31.34 10.4026C31.5452 9.15933 31.5912 7.29235 30.6125 5.44809C29.1501 2.69045 25.2004 -0.348144 14.6997 0.839781C12.7919 1.05545 11.5416 1.71469 10.985 2.79828C10.6143 3.52048 10.6446 4.24559 10.7675 4.79001C9.49569 5.57224 8.68606 6.59288 8.35731 7.83152C7.76439 10.0605 8.94144 12.3959 9.81084 13.7231C9.92554 16.3472 10.9652 19.2377 12.6412 21.5507C13.4074 22.6041 14.2573 23.4825 15.1783 24.1704L14.7592 27.6985H11.2148C5.0309 27.6985 0 32.7294 0 38.9132V42.9008C0.00138762 43.8419 0.375889 44.7442 1.04141 45.4097C1.70693 46.0752 2.60918 46.4497 3.55037 46.4511H36.1064C37.0476 46.4497 37.9498 46.0752 38.6153 45.4097C39.2809 44.7442 39.6554 43.8419 39.6568 42.9008V38.9132C39.6605 36.8604 39.0992 34.8461 38.0344 33.091C37.2699 31.8309 36.267 30.7394 35.0877 29.8742L35.1272 29.8636L43.1429 30.8221C43.2671 30.8374 43.393 30.822 43.5098 30.7772C43.6266 30.7324 43.7306 30.6596 43.8126 30.5652C43.8947 30.4708 43.9523 30.3577 43.9804 30.2358C44.0086 30.1139 44.0064 29.9869 43.974 29.8661L42.3261 23.716L40.6782 17.5659C40.6508 17.4605 40.6012 17.3622 40.5328 17.2775C40.4643 17.1928 40.3785 17.1237 40.2812 17.0749C40.1839 17.0261 40.0773 16.9986 39.9685 16.9944C39.8597 16.9901 39.7513 17.0092 39.6505 17.0503C39.5892 17.0746 39.5314 17.1067 39.4784 17.1458L32.9949 21.9976L27.0084 23.6017C25.9312 23.8903 25.2797 25.0194 25.5684 26.0969L25.9975 27.6985H24.9015L24.4822 24.1685C25.4027 23.481 26.251 22.6032 27.0164 21.5507C28.6234 19.3329 29.6454 16.5843 29.8279 14.0487ZM22.7261 25.2051C21.7802 25.6231 20.8098 25.8344 19.8282 25.8344C18.8478 25.8344 17.879 25.6235 16.9345 25.2065L16.64 27.6985H23.0208L22.7261 25.2051ZM24.0417 29.5637H15.619C15.6087 29.564 15.5985 29.5642 15.5882 29.5641C15.5775 29.5642 15.5668 29.564 15.5562 29.5637H11.2148C6.0597 29.5637 1.86524 33.7605 1.86524 38.9132V42.9008C1.8657 43.3475 2.04339 43.7759 2.35931 44.0918C2.67524 44.4077 3.10359 44.5854 3.55037 44.5859H36.1064C36.5532 44.5854 36.9815 44.4077 37.2974 44.0918C37.6134 43.7759 37.791 43.3475 37.7915 42.9008V38.9132C37.7946 37.2017 37.3266 35.5223 36.4389 34.0589C35.7628 32.9445 34.863 31.9882 33.8013 31.2475L34.3352 33.2398C34.4296 33.5922 34.4239 33.9983 34.2326 34.3631C34.0413 34.728 33.6656 35.0012 33.2552 35.1112L32.2715 35.3747C31.8611 35.4847 31.3991 35.4359 31.051 35.2156C30.7029 34.9953 30.495 34.6465 30.4005 34.2941L29.6095 31.342L29.1177 31.4738C28.0406 31.7624 26.9118 31.1105 26.623 30.0329L26.4973 29.5637H24.1049C24.093 29.5641 24.081 29.5642 24.0691 29.5641C24.0599 29.5641 24.0508 29.564 24.0417 29.5637ZM10.1567 8.31065C9.96837 9.01901 10.0635 9.78109 10.2881 10.4999C10.5157 9.97127 10.8238 9.51488 11.2143 9.12532C12.9327 7.41333 15.7946 7.42036 19.1157 7.42852L19.1189 7.42853H20.5429L20.5459 7.42852C23.863 7.42036 26.7267 7.41332 28.4433 9.12532C28.8504 9.53164 29.168 10.0107 29.3982 10.5685C29.714 9.24725 29.6973 7.69902 28.9665 6.323C28.2233 4.92407 26.8517 3.88304 24.8862 3.23079C22.4043 2.406 19.0469 2.22531 14.9066 2.69336C13.6989 2.82976 12.8963 3.16667 12.6456 3.6423C12.4014 4.10861 12.6987 4.72531 12.7243 4.77719C12.7876 4.88659 12.8274 5.00797 12.8413 5.13361C12.8551 5.25925 12.8427 5.38639 12.8047 5.50696C12.7662 5.62931 12.7026 5.7423 12.618 5.83874C12.5334 5.93518 12.4297 6.01295 12.3134 6.06712C11.1085 6.65 10.4032 7.38328 10.1567 8.31065ZM39.4952 19.0529L40.8506 24.1113L42.2039 29.1621L35.6696 28.3834L34.2256 22.9944L39.4952 19.0529ZM27.4039 25.0777L30.3548 24.287L31.6732 29.2071L29.8749 29.6889L28.7222 29.9978C28.437 30.0742 28.175 29.9229 28.0985 29.6376L27.0439 25.7015C26.9674 25.4162 27.1186 25.1542 27.4039 25.0777ZM31.8303 23.8917L32.814 23.6281L34.1323 28.5482L33.1487 28.8117L31.8303 23.8917ZM31.085 30.9467L32.0687 30.6831L32.8597 33.6352L31.876 33.8987L31.085 30.9467Z" fill="white"/>
</svg>
