<svg width="42" height="47" viewBox="0 0 42 47" fill="none" xmlns="http://www.w3.org/2000/svg">
<path fill-rule="evenodd" clip-rule="evenodd" d="M27.9819 13.6256C27.9802 13.6469 27.9793 13.6681 27.979 13.6894C27.8714 15.9451 26.9635 18.4411 25.5038 20.4555C23.8857 22.6862 21.817 23.9685 19.8282 23.9685C17.8394 23.9685 15.7708 22.6879 14.1532 20.4555C12.5963 18.307 11.6672 15.6105 11.6672 13.2423C11.6672 11.9407 11.9499 11.0273 12.5328 10.4444C13.61 9.37071 15.8203 9.29086 18.4293 9.29086L19.1119 9.29202H20.5452L20.556 9.292C23.4542 9.28559 25.9558 9.28007 27.1237 10.4444C27.7065 11.0273 27.9898 11.9418 27.9898 13.2423C27.9898 13.3691 27.9872 13.497 27.9819 13.6256ZM31.34 10.4026C31.11 11.771 30.5648 13.0792 29.8279 14.0487C29.6454 16.5843 28.6234 19.3329 27.0164 21.5507C26.251 22.6032 25.4027 23.481 24.4822 24.1685L24.9015 27.6985H26.9877C27.2135 27.6985 27.3184 27.8048 27.4681 27.9564L27.5123 28.001C27.6217 28.1104 27.5942 28.1914 27.5583 28.2973C27.5368 28.3607 27.5123 28.433 27.5123 28.5256C27.5123 28.6232 27.5605 28.7356 27.6081 28.8467C27.6813 29.0172 27.7531 29.1846 27.6472 29.2905C27.4723 29.4654 27.235 29.5637 26.9877 29.5637H24.1063C24.0939 29.5641 24.0815 29.5643 24.0691 29.5642C24.0595 29.5642 24.0499 29.564 24.0403 29.5637H15.619C15.6087 29.564 15.5985 29.5642 15.5882 29.5641C15.5775 29.5642 15.5668 29.564 15.5562 29.5637H11.2148C6.0597 29.5637 1.86524 33.7605 1.86524 38.9132V42.9008C1.8657 43.3475 2.04339 43.7759 2.35931 44.0918C2.67524 44.4077 3.10359 44.5854 3.55037 44.5859H36.1064C36.5532 44.5854 36.9815 44.4077 37.2974 44.0918C37.6134 43.7759 37.7911 43.3475 37.7915 42.9008V38.9132C37.7946 37.2017 37.3266 35.5223 36.4389 34.0589C36.1136 33.5229 35.7367 33.0234 35.3149 32.567L36.7785 31.4026C37.2473 31.9225 37.6682 32.4874 38.0344 33.091C39.0992 34.8461 39.6605 36.8604 39.6568 38.9132V42.9008C39.6554 43.8419 39.2809 44.7442 38.6153 45.4097C37.9498 46.0752 37.0476 46.4497 36.1064 46.4511H3.55037C2.60918 46.4497 1.70693 46.0752 1.04141 45.4097C0.375889 44.7442 0.00138762 43.8419 0 42.9008V38.9132C0 32.7294 5.0309 27.6985 11.2148 27.6985H14.7592L15.1783 24.1704C14.2573 23.4825 13.4074 22.6041 12.6412 21.5507C10.9652 19.2377 9.92554 16.3472 9.81084 13.7231C8.94144 12.3959 7.76439 10.0605 8.35731 7.83152C8.68606 6.59288 9.49569 5.57224 10.7675 4.79001C10.6446 4.24559 10.6143 3.52048 10.985 2.79828C11.5416 1.71469 12.7919 1.05545 14.6997 0.839781C25.2004 -0.348144 29.1501 2.69045 30.6125 5.44809C31.5912 7.29235 31.5452 9.15933 31.34 10.4026ZM23.0208 27.6985L22.7261 25.2051C21.7802 25.6231 20.8098 25.8344 19.8282 25.8344C18.8478 25.8344 17.879 25.6235 16.9345 25.2065L16.64 27.6985H23.0208ZM10.2881 10.4999C10.0635 9.78109 9.96837 9.01901 10.1567 8.31065C10.4032 7.38328 11.1085 6.65 12.3134 6.06712C12.4297 6.01295 12.5334 5.93518 12.618 5.83874C12.7026 5.7423 12.7662 5.62931 12.8047 5.50696C12.8427 5.38639 12.8551 5.25925 12.8413 5.13361C12.8274 5.00797 12.7876 4.88659 12.7243 4.77719C12.6987 4.72531 12.4014 4.10861 12.6456 3.6423C12.8963 3.16667 13.6989 2.82976 14.9066 2.69336C19.0469 2.22531 22.4043 2.406 24.8862 3.23079C26.8517 3.88304 28.2233 4.92407 28.9665 6.323C29.6973 7.69902 29.714 9.24725 29.3982 10.5685C29.168 10.0107 28.8504 9.53164 28.4433 9.12532C26.7267 7.41332 23.863 7.42036 20.5459 7.42852L20.5429 7.42853H19.1189L19.1157 7.42852C15.7946 7.42036 12.9327 7.41333 11.2143 9.12532C10.8238 9.51488 10.5157 9.97127 10.2881 10.4999Z" fill="white"/>
<path d="M37.6124 22.0002C36.3959 21.9974 35.2279 22.4739 34.3642 23.3253L33.9992 23.6997L33.6342 23.3369C32.7705 22.4854 31.6024 22.0088 30.3859 22.0117C29.7992 22.0071 29.2175 22.1206 28.6762 22.3455C28.1348 22.5704 27.6449 22.902 27.236 23.3203C26.4327 24.1503 25.989 25.2603 26.0002 26.4118C26.0114 27.5634 26.4767 28.6646 27.296 29.479L33.7758 35.9076C33.8053 35.9369 33.8402 35.9601 33.8787 35.976C33.9171 35.9918 33.9584 36 34 36C34.0416 36 34.0829 35.9918 34.1213 35.976C34.1598 35.9601 34.1947 35.9369 34.2242 35.9076L40.2574 29.9113L40.704 29.4674C41.5233 28.653 41.9886 27.5518 41.9998 26.4002C42.011 25.2487 41.5673 24.1387 40.764 23.3087C40.3549 22.8902 39.8648 22.5585 39.3231 22.3336C38.7814 22.1087 38.1994 21.9953 37.6124 22.0002ZM39.2107 28.1389L38.8424 28.5033L33.9992 33.3202L28.7876 28.1406C28.4327 27.7976 28.1869 27.3586 28.0805 26.8781C27.9742 26.3976 28.012 25.8966 28.1893 25.4373C28.3631 25.0022 28.6664 24.6303 29.0586 24.3713C29.4509 24.1122 29.9134 23.9785 30.3843 23.9879C31.0707 23.988 31.7294 24.257 32.2175 24.7366L33.5608 26.0816C33.6178 26.1386 33.6856 26.1838 33.7603 26.2147C33.8349 26.2456 33.915 26.2614 33.9958 26.2614C34.0767 26.2614 34.1567 26.2456 34.2314 26.2147C34.306 26.1838 34.3738 26.1386 34.4308 26.0816L35.7741 24.7366C36.2624 24.2571 36.921 23.9881 37.6074 23.9879C38.0783 23.9785 38.5408 24.1122 38.933 24.3713C39.3253 24.6303 39.6286 25.0022 39.8024 25.4373C39.9804 25.8957 40.0192 26.396 39.914 26.8762C39.8089 27.3564 39.5643 27.7954 39.2107 28.1389Z" fill="white"/>
</svg>
