<svg width="46" height="47" viewBox="0 0 46 47" fill="none" xmlns="http://www.w3.org/2000/svg">
<path fill-rule="evenodd" clip-rule="evenodd" d="M40.5429 0.795899H4.9776C4.32386 0.795647 3.67648 0.924224 3.07246 1.17428C2.46843 1.42434 1.91961 1.79098 1.45734 2.25324C0.995081 2.7155 0.628443 3.26433 0.378385 3.86836C0.128327 4.47238 -0.00025086 5.11976 3.67444e-07 5.7735V29.7666C-0.000250749 30.4204 0.128313 31.0679 0.378348 31.672C0.628382 32.2762 0.99499 32.8251 1.45723 33.2875C1.91947 33.75 2.46828 34.1168 3.07231 34.367C3.67635 34.6173 4.32377 34.7461 4.9776 34.7461H40.5429C41.1967 34.7461 41.8441 34.6173 42.4481 34.367C43.0522 34.1168 43.601 33.75 44.0632 33.2875C44.5255 32.8251 44.8921 32.2762 45.1421 31.672C45.3921 31.0679 45.5207 30.4204 45.5205 29.7666V5.7735C45.5207 5.11976 45.3921 4.47238 45.1421 3.86836C44.892 3.26433 44.5254 2.7155 44.0631 2.25324C43.6008 1.79098 43.052 1.42434 42.448 1.17428C41.844 0.924224 41.1966 0.795647 40.5429 0.795899ZM42.0638 29.7666C42.0638 30.1702 41.9036 30.5572 41.6184 30.8427C41.3333 31.1283 40.9464 31.2889 40.5429 31.2895H4.9776C4.57405 31.2889 4.1872 31.1283 3.90202 30.8427C3.61685 30.5572 3.45667 30.1702 3.45667 29.7666V5.7735C3.45718 5.37028 3.61758 4.98372 3.9027 4.6986C4.18782 4.41348 4.57438 4.25307 4.9776 4.25257H40.5429C40.9461 4.25307 41.3326 4.41348 41.6178 4.6986C41.9029 4.98372 42.0633 5.37028 42.0638 5.7735V29.7666ZM28.6327 36.9029H17.0778V40.5324H28.6327V36.9029ZM8.93355 42.2261H36.7789C37.6116 42.2261 38.4103 42.5569 38.9991 43.1458C39.5879 43.7346 39.9187 44.5332 39.9187 45.366V46.1898H5.79374V45.366C5.79374 44.5332 6.12454 43.7346 6.71337 43.1458C7.3022 42.5569 8.10082 42.2261 8.93355 42.2261ZM20.5499 6.48429C18.7901 6.48391 17.0698 7.0054 15.6064 7.98279C14.143 8.96018 13.0024 10.3496 12.3287 11.9753C11.655 13.601 11.4785 15.3899 11.8216 17.1159C12.1647 18.8419 13.0119 20.4274 14.2561 21.6719C15.5003 22.9163 17.0856 23.7639 18.8115 24.1073C20.5374 24.4508 22.3264 24.2747 23.9523 23.6014C25.5781 22.928 26.9678 21.7877 27.9455 20.3245C28.9232 18.8614 29.445 17.1411 29.445 15.3814C29.445 13.022 28.5079 10.7593 26.8398 9.09087C25.1717 7.4224 22.9092 6.4848 20.5499 6.48429ZM20.5499 21.3076C19.3773 21.3076 18.2311 20.9599 17.2561 20.3084C16.2812 19.6569 15.5214 18.731 15.0728 17.6476C14.6241 16.5643 14.5068 15.3722 14.7357 14.2222C14.9646 13.0722 15.5294 12.0159 16.3587 11.1869C17.188 10.3579 18.2444 9.79346 19.3945 9.56494C20.5446 9.33642 21.7366 9.45409 22.8198 9.90307C23.903 10.3521 24.8287 11.1122 25.4799 12.0873C26.1311 13.0625 26.4784 14.2088 26.4781 15.3814C26.476 16.9528 25.8507 18.4593 24.7394 19.5703C23.628 20.6813 22.1213 21.3061 20.5499 21.3076ZM28.3915 21.7157C28.7805 21.7121 29.1553 21.8613 29.4353 22.1312L33.7062 26.404C33.8522 26.5398 33.9693 26.7037 34.0505 26.8857C34.1318 27.0678 34.1755 27.2644 34.1791 27.4637C34.1828 27.663 34.1462 27.8611 34.0716 28.046C33.997 28.2308 33.886 28.3988 33.7451 28.5399C33.6042 28.6809 33.4363 28.7921 33.2515 28.8669C33.0666 28.9416 32.8686 28.9784 32.6693 28.9749C32.47 28.9715 32.2734 28.9279 32.0912 28.8468C31.9091 28.7657 31.7451 28.6488 31.6092 28.503L27.3364 24.2302C27.0665 23.9501 26.9173 23.5753 26.9209 23.1864C26.9245 22.7974 27.0806 22.4255 27.3556 22.1504C27.6306 21.8754 28.0026 21.7193 28.3915 21.7157Z" fill="white"/>
</svg>
