<svg width="44" height="45" viewBox="0 0 44 45" fill="none" xmlns="http://www.w3.org/2000/svg">
<path fill-rule="evenodd" clip-rule="evenodd" d="M37.8866 17.9313C37.4183 17.9312 36.9606 18.0687 36.5712 18.3264C36.1818 18.584 35.8782 18.9503 35.6989 19.3789C35.5196 19.8075 35.4727 20.2792 35.5639 20.7343C35.6552 21.1893 35.8806 21.6074 36.2116 21.9355C36.5427 22.2636 36.9645 22.4871 37.4237 22.5777C37.883 22.6683 38.3591 22.622 38.7917 22.4445C39.2244 22.2671 39.5942 21.9665 39.8544 21.5808C40.1147 21.195 40.2536 20.7415 40.2537 20.2776C40.2533 19.6556 40.0039 19.0592 39.56 18.6193C39.1162 18.1794 38.5144 17.9319 37.8866 17.9313ZM16.8526 36.3518C16.8523 36.4443 16.8151 36.533 16.749 36.5983C16.6829 36.6637 16.5934 36.7005 16.5 36.7006H13.1791C12.9181 36.6994 12.6601 36.6451 12.4211 36.5413C12.182 36.4374 11.967 36.2861 11.7892 36.0968C11.7682 36.0726 11.7809 31.6118 11.7809 31.1705C11.9556 30.9945 12.1564 30.8458 12.3762 30.7297C13.9019 29.7556 14.4923 28.4303 14.8669 26.4232C15.5555 27.1974 15.0852 28.7429 14.6769 29.5316C14.621 29.6392 14.5939 29.7593 14.5984 29.8803C14.6029 30.0012 14.6388 30.119 14.7026 30.2223C14.7664 30.3255 14.856 30.4107 14.9627 30.4697C15.0694 30.5286 15.1896 30.5593 15.3118 30.5589H16.501C16.5943 30.5589 16.6839 30.5955 16.75 30.6608C16.8161 30.7262 16.8533 30.8148 16.8536 30.9073V36.3518H16.8526ZM16.5 29.1527H16.3677C16.7833 27.8579 16.7066 26.6148 16.1274 25.7506C15.9319 25.437 15.6536 25.1824 15.3225 25.0144C14.9914 24.8464 14.6202 24.7713 14.2491 24.7974C14.0886 24.8093 13.937 24.8748 13.819 24.9833C13.7011 25.0918 13.6239 25.2368 13.6001 25.3945C13.2641 27.6203 12.8485 28.6229 11.9025 29.3434C11.6472 29.544 11.3685 29.7135 11.0723 29.8481H9.02455C8.93149 29.848 8.83934 29.8661 8.75334 29.9013C8.66734 29.9365 8.58918 29.9882 8.52334 30.0534C8.45749 30.1185 8.40524 30.1959 8.36957 30.281C8.3339 30.3662 8.31551 30.4575 8.31544 30.5497V36.8976C8.31538 36.9898 8.33364 37.0811 8.3692 37.1663C8.40475 37.2515 8.45689 37.3289 8.52265 37.3942C8.5884 37.4594 8.66649 37.5112 8.75243 37.5465C8.83838 37.5819 8.93052 37.6001 9.02358 37.6002H11.0713C11.1623 37.6011 11.2527 37.5847 11.3375 37.5518C11.8826 37.9135 12.5235 38.1074 13.1796 38.1092H16.5005C16.9701 38.1087 17.4204 37.9236 17.7524 37.5946C18.0845 37.2656 18.2713 36.8195 18.2718 36.3542V30.9073C18.2713 30.442 18.0845 29.996 17.7524 29.667C17.4203 29.3381 16.9696 29.1531 16.5 29.1527ZM25.6628 17.9313C25.1945 17.9311 24.7367 18.0685 24.3472 18.3261C23.9578 18.5837 23.6542 18.9499 23.4748 19.3785C23.2954 19.8071 23.2483 20.2787 23.3395 20.7338C23.4306 21.1889 23.656 21.6069 23.9869 21.9351C24.3179 22.2633 24.7397 22.4869 25.1989 22.5776C25.6582 22.6683 26.1342 22.6221 26.5669 22.4447C26.9996 22.2673 27.3695 21.9668 27.6298 21.5812C27.8902 21.1955 28.0292 20.742 28.0294 20.2781C28.0291 19.6561 27.7798 19.0596 27.3361 18.6196C26.8923 18.1796 26.2905 17.9321 25.6628 17.9313ZM31.7747 17.9313C31.3064 17.9313 30.8487 18.0689 30.4593 18.3266C30.07 18.5844 29.7665 18.9508 29.5873 19.3794C29.4081 19.808 29.3612 20.2797 29.4526 20.7347C29.5439 21.1898 29.7694 21.6078 30.1005 21.9358C30.4317 22.2639 30.8535 22.4873 31.3128 22.5778C31.7721 22.6683 32.2481 22.6219 32.6807 22.4443C33.1134 22.2668 33.4831 21.9661 33.7433 21.5804C34.0034 21.1946 34.1423 20.741 34.1423 20.2771C34.1418 19.6552 33.8922 19.0589 33.4484 18.6191C33.0046 18.1793 32.4024 17.9319 31.7747 17.9313ZM42.5818 24.8913V15.6624C42.5818 14.9694 42.3039 14.3048 41.8094 13.8148C41.3148 13.3248 40.644 13.0495 39.9446 13.0495H28.2824V13.2431C28.2807 14.3077 27.8531 15.3282 27.0933 16.0811C26.3335 16.8339 25.3034 17.2575 24.2289 17.2592H20.9661V24.8913C20.9661 25.5843 21.244 26.2489 21.7385 26.7389C22.2331 27.2289 22.9039 27.5042 23.6033 27.5042H32.75C32.843 27.5041 32.9352 27.5221 33.0212 27.5573C33.1072 27.5924 33.1854 27.644 33.2513 27.7091C33.3172 27.7743 33.3695 27.8516 33.4052 27.9367C33.441 28.0218 33.4594 28.1131 33.4596 28.2053C33.4595 28.2498 33.4552 28.2942 33.4469 28.3379C33.2819 29.1699 32.9497 29.9606 32.4701 30.6629C34.5808 30.3726 35.9727 29.4629 36.7028 27.9102C36.7599 27.7888 36.8507 27.6862 36.9647 27.6143C37.0786 27.5424 37.2109 27.5042 37.346 27.5042H39.9451C40.2914 27.5042 40.6343 27.4366 40.9543 27.3053C41.2743 27.174 41.565 26.9815 41.8099 26.7389C42.0547 26.4963 42.249 26.2082 42.3815 25.8912C42.5141 25.5742 42.5818 25.2344 42.5818 24.8913ZM25.1671 37.1105V28.9089H23.6043C22.5298 28.9071 21.4998 28.4834 20.7401 27.7306C19.9803 26.9778 19.5526 25.9573 19.5508 24.8927V24.1094H4.36259C3.58167 24.1102 2.83298 24.418 2.28074 24.965C1.7285 25.5121 1.41779 26.2538 1.41676 27.0276V37.1105C1.41779 37.8842 1.7285 38.6259 2.28074 39.173C2.83298 39.7201 3.58167 40.0278 4.36259 40.0287H7.20245C7.3375 40.0286 7.46975 40.0668 7.58363 40.1387C7.6975 40.2106 7.78824 40.3133 7.84514 40.4347C8.67 42.1887 10.2548 43.199 12.6653 43.4985C12.1051 42.7083 11.7179 41.8107 11.5284 40.8634C11.5111 40.7725 11.512 40.6792 11.5311 40.5886C11.5502 40.4981 11.5871 40.4122 11.6397 40.3358C11.6923 40.2594 11.7596 40.1941 11.8377 40.1434C11.9158 40.0928 12.0032 40.0579 12.0949 40.0408C12.1381 40.0329 12.1819 40.0288 12.2258 40.0287H22.2217C23.0026 40.0278 23.7512 39.7201 24.3034 39.173C24.8556 38.6259 25.1662 37.8842 25.1671 37.1105ZM15.0793 15.8579C14.9747 15.8578 14.8714 15.8805 14.7767 15.9246C14.682 15.9686 14.5983 16.0329 14.5316 16.1128C14.4649 16.1926 14.4169 16.2861 14.3909 16.3865C14.365 16.4869 14.3617 16.5918 14.3815 16.6935C14.547 17.5254 14.8791 18.316 15.3582 19.0185C13.2465 18.7282 11.8561 17.8185 11.125 16.2653C11.068 16.144 10.9771 16.0413 10.8632 15.9694C10.7493 15.8975 10.6169 15.8593 10.4818 15.8594H7.88617C7.18674 15.8594 6.51596 15.5841 6.02139 15.0941C5.52683 14.604 5.24898 13.9394 5.24898 13.2464V4.01613C5.24898 3.32314 5.52683 2.65854 6.02139 2.16853C6.51596 1.67851 7.18674 1.40323 7.88617 1.40323H24.2274C24.9269 1.40323 25.5977 1.67851 26.0922 2.16853C26.5868 2.65854 26.8646 3.32314 26.8646 4.01613V13.2464C26.8646 13.9394 26.5868 14.604 26.0922 15.0941C25.5977 15.5841 24.9269 15.8594 24.2274 15.8594L15.0793 15.8579ZM39.9465 11.6448H28.2824V4.01613C28.2807 2.9515 27.8531 1.93094 27.0933 1.17813C26.3335 0.425324 25.3034 0.00166359 24.2289 0H7.88324C6.80875 0.00179117 5.77879 0.425493 5.01901 1.17828C4.25923 1.93106 3.83159 2.95154 3.82978 4.01613V13.2464C3.83159 14.3115 4.25957 15.3323 5.01987 16.0852C5.78018 16.838 6.81077 17.2614 7.88568 17.2626H10.0501C11.2564 19.4134 13.5664 20.5103 16.9185 20.5258C17.0576 20.5264 17.1937 20.4864 17.3101 20.4109C17.4264 20.3355 17.5178 20.2278 17.5729 20.1013C17.628 19.9748 17.6444 19.8351 17.62 19.6994C17.5956 19.5638 17.5315 19.4382 17.4357 19.3384C16.8365 18.7417 16.3578 18.0372 16.0253 17.2626H19.5489V22.7032H4.36454C3.20735 22.7044 2.09789 23.1603 1.27963 23.9711C0.461372 24.7818 0.00116359 25.881 0 27.0276V37.1105C0.00116359 38.257 0.461372 39.3563 1.27963 40.167C2.09789 40.9777 3.20735 41.4337 4.36454 41.4348H6.76829C8.06931 43.785 10.5776 44.9835 14.235 45C14.3741 45.0006 14.5104 44.9607 14.6268 44.8852C14.7432 44.8097 14.8347 44.702 14.8898 44.5754C14.9449 44.4488 14.9613 44.309 14.9368 44.1732C14.9123 44.0375 14.8481 43.9119 14.7521 43.8121C14.0659 43.1336 13.5246 42.3251 13.1605 41.4348H22.2217C23.3789 41.4337 24.4884 40.9777 25.3066 40.167C26.1249 39.3563 26.5851 38.257 26.5863 37.1105V28.9089H31.8059C31.4744 29.6839 30.9953 30.3885 30.3951 30.9842C30.2999 31.0841 30.2362 31.2093 30.212 31.3446C30.1878 31.4799 30.204 31.6192 30.2588 31.7454C30.3135 31.8716 30.4043 31.9792 30.5199 32.055C30.6356 32.1307 30.7711 32.1712 30.9098 32.1716C33.6315 32.1716 36.3795 31.4119 37.7821 28.9089H39.9465C41.0211 28.9073 42.0512 28.4837 42.8111 27.7309C43.5709 26.978 43.9985 25.9574 44 24.8927V15.6624C43.9985 14.5977 43.5709 13.5771 42.8111 12.8243C42.0512 12.0714 41.0211 11.6478 39.9465 11.6463V11.6448ZM18.3372 3.86129C18.9045 3.87336 19.457 4.04252 19.9322 4.3496C20.4074 4.65668 20.7864 5.08943 21.0262 5.59887C21.7793 7.06064 21.5058 8.90081 20.2961 10.5218C19.6222 11.3858 18.7875 12.1139 17.8372 12.6668C17.2989 13.036 16.6865 13.2857 16.0419 13.3989C15.4223 13.2599 14.8326 13.0128 14.3004 12.6692C13.2051 12.0619 12.2654 11.2133 11.5538 10.1889C10.5326 8.6129 10.3817 6.94693 11.1348 5.62016C11.3996 5.12905 11.7943 4.71859 12.2766 4.43278C12.7589 4.14698 13.3106 3.99659 13.8726 3.99774C14.2886 4.0152 14.6963 4.11851 15.0697 4.30107C15.4431 4.48362 15.7739 4.7414 16.0409 5.0579C16.3096 4.70162 16.6552 4.4093 17.0525 4.20227C17.4498 3.99525 17.8887 3.87875 18.3372 3.86129Z" fill="white"/>
</svg>
