<svg width="57" height="33" viewBox="0 0 57 33" fill="none" xmlns="http://www.w3.org/2000/svg">
<path fill-rule="evenodd" clip-rule="evenodd" d="M56.3277 21.3318L53.3141 16.3091L56.3277 11.1682C56.8004 10.3409 56.8004 9.33636 56.3277 8.50909C55.855 7.68182 54.9686 7.15 54.0232 7.15H42.0868C39.1323 2.83636 34.2277 0 28.6141 0C23.0004 0 18.0959 2.83636 15.1414 7.15H3.20499C2.25953 7.15 1.37317 7.62273 0.900444 8.50909C0.427717 9.39546 0.427717 10.3409 0.900444 11.1682L3.91408 16.1909L0.900444 21.3318C0.427717 22.1591 0.427717 23.1636 0.900444 23.9909C1.37317 24.8182 2.25953 25.35 3.20499 25.35H15.1414C18.0959 29.6636 23.0004 32.5 28.6141 32.5C34.2277 32.5 39.1323 29.6636 42.0868 25.35H54.0232C54.9686 25.35 55.855 24.8773 56.3277 23.9909C56.8004 23.1636 56.8004 22.2182 56.3277 21.3318ZM3.44135 22.5727L6.33681 17.6091C6.80954 16.7818 6.80954 15.7182 6.33681 14.8909L3.44135 9.92727H13.605C12.7777 11.8773 12.305 14.0045 12.305 16.25C12.305 18.4955 12.7777 20.6227 13.605 22.5727H3.44135ZM28.6141 29.7227C21.1686 29.7227 15.1414 23.6955 15.1414 16.25C15.1414 8.80454 21.1686 2.77727 28.6141 2.77727C36.0595 2.77727 42.0868 8.80454 42.0868 16.25C42.0868 23.6955 36.0595 29.7227 28.6141 29.7227ZM43.6232 22.5727C44.4504 20.6227 44.9232 18.4955 44.9232 16.25C44.9232 14.0045 44.4504 11.8773 43.6232 9.92727H53.7868L50.8914 14.8909C50.4186 15.7182 50.4186 16.7818 50.8914 17.6091L53.7868 22.5727H43.6232ZM33.0461 14.9497C32.6915 14.4179 31.8052 14.4179 31.4506 14.9497L29.9142 17.1952L27.0779 13.0588C26.7233 12.527 25.837 12.527 25.4824 13.0588L20.5188 20.3861C20.3415 20.6815 20.2824 21.0952 20.4597 21.3906C20.637 21.6861 20.9324 21.9224 21.3461 21.9224H36.0006C36.3552 21.9224 36.7097 21.7452 36.887 21.3906C37.0642 21.0952 37.0052 20.6815 36.8279 20.3861L33.0461 14.9497ZM33.5194 10.1635C33.5194 11.3057 32.5934 12.2317 31.4512 12.2317C30.3089 12.2317 29.383 11.3057 29.383 10.1635C29.383 9.0213 30.3089 8.09534 31.4512 8.09534C32.5934 8.09534 33.5194 9.0213 33.5194 10.1635Z" fill="white"/>
</svg>
