<svg width="36" height="45" viewBox="0 0 36 45" fill="none" xmlns="http://www.w3.org/2000/svg">
<path fill-rule="evenodd" clip-rule="evenodd" d="M5.81141 0.0361328H24.4735L35.4129 12.263V38.4909C35.4129 41.6952 32.8063 44.3014 29.6029 44.3014H5.81141C2.60669 44.3014 0 41.6947 0 38.4909V5.84662C0 2.64236 2.60715 0.0361328 5.81141 0.0361328ZM30.9328 11.4075L25.2391 5.04371V11.4075H30.9328ZM5.81141 41.5327H29.6029C31.2798 41.5327 32.6443 40.1683 32.6443 38.4909V14.1761H22.4704V2.80479H5.81141C4.1336 2.80479 2.76866 4.16927 2.76866 5.84662V38.4909C2.76866 40.1683 4.1336 41.5327 5.81141 41.5327ZM5.76668 38.2795L11.1905 21.9873L18.6917 18.604L25.4421 25.3545L22.0588 32.8557L5.76668 38.2795ZM13.0736 32.9295L20.0336 30.6126L22.1322 25.9594L18.0872 21.9144L13.4345 24.0126L11.1185 30.9693L16.2996 25.7887L18.257 27.7461L13.0736 32.9295Z" fill="white"/>
</svg>
