<svg width="44" height="47" viewBox="0 0 44 47" fill="none" xmlns="http://www.w3.org/2000/svg">
<path fill-rule="evenodd" clip-rule="evenodd" d="M27.9785 13.6904C27.9787 13.6685 27.9797 13.6465 27.9815 13.6246C27.9867 13.4962 27.9894 13.3687 27.9894 13.2421C27.9894 11.9417 27.7061 11.0271 27.1232 10.4442C25.9554 9.2799 23.4538 9.28543 20.5556 9.29183L20.5448 9.29185H19.1114L18.4289 9.29069C15.8199 9.29069 13.6096 9.37054 12.5324 10.4442C11.9495 11.0271 11.6668 11.9405 11.6668 13.2421C11.6668 15.6104 12.5959 18.3068 14.1528 20.4553C15.7703 22.6878 17.839 23.9684 19.8278 23.9684C21.8166 23.9684 23.8853 22.686 25.5034 20.4553C26.9628 18.4413 27.8706 15.9457 27.9785 13.6904ZM29.8275 14.0486C30.5643 13.0792 31.1095 11.771 31.3395 10.4026C31.5447 9.15933 31.5907 7.29235 30.6121 5.44809C29.1496 2.69045 25.1999 -0.348144 14.6992 0.839781C12.7914 1.05545 11.5411 1.7147 10.9845 2.79828C10.6138 3.52048 10.6441 4.24559 10.7671 4.79001C9.49521 5.57225 8.68558 6.59288 8.35683 7.83152C7.76389 10.0605 8.94102 12.396 9.81042 13.7232C9.92518 16.3472 10.9648 19.2376 12.6408 21.5506C13.4071 22.6043 14.2573 23.4828 15.1786 24.1707L14.7596 27.6982H11.2148C5.0309 27.6982 0 32.7291 0 38.913V42.9005C0.00138855 43.8417 0.375889 44.744 1.04141 45.4095C1.70693 46.075 2.60918 46.4495 3.55037 46.4509H36.1064C37.0476 46.4495 37.9498 46.075 38.6153 45.4095C39.2809 44.744 39.6554 43.8417 39.6568 42.9005V38.913C39.6587 37.8442 39.5075 36.7858 39.2118 35.769C41.4275 34.4635 43.0247 32.1887 43.3481 29.5524C43.6714 26.8935 42.8091 24.3065 40.9407 22.474C39.0723 20.6056 36.4852 19.7432 33.8623 20.0666C30.0536 20.5337 26.9635 23.6597 26.5323 27.4684C26.5233 27.5451 26.5153 27.6218 26.5083 27.6982H24.9015L24.4822 24.168C25.4025 23.4805 26.2507 22.6029 27.016 21.5506C28.6229 19.3328 29.6449 16.5843 29.8275 14.0486ZM26.5369 29.5635H24.1083C24.0953 29.564 24.0822 29.5641 24.0691 29.564C24.0588 29.564 24.0485 29.5638 24.0382 29.5635H15.6229C15.6115 29.5639 15.6 29.5641 15.5885 29.564C15.5767 29.5641 15.5648 29.5639 15.553 29.5635H11.2148C6.0597 29.5635 1.86524 33.7603 1.86524 38.913V42.9005C1.8657 43.3473 2.04339 43.7757 2.35931 44.0916C2.67524 44.4075 3.10359 44.5852 3.55037 44.5857H36.1064C36.5532 44.5852 36.9815 44.4075 37.2974 44.0916C37.6134 43.7757 37.7911 43.3473 37.7915 42.9005V38.913C37.793 38.1094 37.6906 37.3129 37.4896 36.5425C36.9919 36.7025 36.4757 36.8174 35.9463 36.8823C34.1138 37.0979 32.3531 36.7746 30.7722 35.8763L27.6821 37.2776C27.5025 37.3494 27.3587 37.3854 27.1791 37.3854C26.8916 37.3854 26.5682 37.2417 26.3527 37.0261C25.9934 36.7027 25.8856 36.1637 26.1371 35.7326L27.5384 32.6425C27.0108 31.6752 26.6715 30.6406 26.5369 29.5635ZM22.7261 25.2047L23.0208 27.6982H16.6403L16.9348 25.2066C17.8791 25.6235 18.8476 25.8342 19.8278 25.8342C20.8095 25.8342 21.7801 25.6228 22.7261 25.2047ZM10.1562 8.31065C9.96789 9.019 10.063 9.78106 10.2876 10.4998C10.5152 9.97118 10.8233 9.51475 11.2139 9.12515C12.9323 7.41317 15.7942 7.4202 19.1153 7.42835L19.1184 7.42836H20.5424L20.5455 7.42835H20.5455C23.8626 7.4202 26.7262 7.41316 28.4429 9.12515C28.8499 9.53147 29.1676 10.0105 29.3978 10.5683C29.7135 9.24711 29.6968 7.69896 28.966 6.323C28.2228 4.92407 26.8513 3.88304 24.8858 3.23079C22.4038 2.406 19.0464 2.22531 14.9062 2.69336C13.6984 2.82976 12.8958 3.16667 12.6451 3.64231C12.4009 4.10862 12.6982 4.72531 12.7238 4.77719C12.7871 4.88659 12.827 5.00798 12.8408 5.13361C12.8547 5.25925 12.8422 5.38639 12.8043 5.50696C12.7657 5.62931 12.7021 5.7423 12.6175 5.83874C12.5329 5.93518 12.4292 6.01295 12.3129 6.06712C11.1081 6.65 10.4028 7.38328 10.1562 8.31065ZM35.7307 35.0499C38.7129 34.6906 41.1563 32.2832 41.5156 29.3009C41.7671 27.2528 41.0844 25.2407 39.6472 23.7675C38.174 22.2943 36.1618 21.6116 34.0778 21.8632C31.0956 22.2584 28.6882 24.6658 28.3289 27.6481C28.1492 29.1931 28.5085 30.7381 29.3349 32.0317C29.5146 32.3191 29.5505 32.6425 29.4068 32.9299L28.5085 34.8702L30.4488 33.9719C30.4733 33.9658 30.4967 33.9597 30.5194 33.9538L30.5198 33.9537L30.52 33.9536C30.6306 33.9247 30.725 33.9001 30.844 33.9001C31.0237 33.9001 31.2034 33.936 31.3471 34.0438C32.6406 34.8702 34.1497 35.2295 35.7307 35.0499ZM34.9405 23.624C32.7487 23.624 31.9941 25.205 31.9941 26.2829V26.4626C31.9941 26.6422 32.1379 26.8219 32.3535 26.8219H33.2877C33.4673 26.8219 33.647 26.6782 33.647 26.4626V26.2829C33.647 26.247 33.647 25.2769 34.9405 25.2769C35.7669 25.2769 36.1262 25.5643 36.1262 26.3189C36.1262 26.786 35.5513 27.289 35.0483 27.7202C34.2937 28.331 33.9344 28.9778 33.9344 29.6964V30.0557C33.9344 30.2353 34.0781 30.415 34.2937 30.415H35.2279C35.4076 30.415 35.5872 30.2713 35.5872 30.0557V29.6964C35.5872 29.6245 35.5872 29.4089 36.0903 29.0137C36.737 28.5106 37.779 27.6124 37.779 26.3189C37.815 25.0253 37.0604 23.624 34.9405 23.624ZM35.874 32.2114C35.874 32.7869 35.4075 33.2534 34.832 33.2534C34.2566 33.2534 33.79 32.7869 33.79 32.2114C33.79 31.636 34.2566 31.1694 34.832 31.1694C35.4075 31.1694 35.874 31.636 35.874 32.2114Z" fill="white"/>
</svg>
