<svg width="45" height="45" viewBox="0 0 45 45" fill="none" xmlns="http://www.w3.org/2000/svg">
<path d="M22.3569 44.1963C10.358 44.1963 0.597656 34.436 0.597656 22.437C0.597656 10.4381 10.358 0.677734 22.3569 0.677734C34.3559 0.677734 44.1162 10.4381 44.1162 22.437C44.1162 34.436 34.3559 44.1963 22.3569 44.1963ZM22.3569 3.71392C12.032 3.71392 3.63384 12.112 3.63384 22.437C3.63384 32.762 12.032 41.1601 22.3569 41.1601C32.682 41.1601 41.0801 32.762 41.0801 22.437C41.0801 12.112 32.682 3.71392 22.3569 3.71392ZM23.7959 25.198C23.8445 25.0523 24.12 24.4997 25.6017 23.5079C27.9901 21.9068 29.0589 19.6193 28.6156 17.0649C28.1663 14.4842 26.063 12.365 23.5005 11.9137C21.6281 11.5817 19.7316 12.0855 18.2905 13.292C16.8351 14.5124 16.0014 16.3037 16.0014 18.2084C16.0014 19.0464 16.6815 19.7265 17.5195 19.7265C18.3575 19.7265 19.0376 19.0464 19.0376 18.2084C19.0376 17.2044 19.4768 16.2596 20.2419 15.618C21.003 14.9804 21.9743 14.7193 22.9722 14.9014C24.2798 15.1322 25.3952 16.2595 25.6259 17.5832C25.7129 18.0833 25.9783 19.6012 23.9116 20.9836C22.2377 22.1071 21.2863 23.1373 20.9199 24.2304C20.6527 25.0259 21.0816 25.886 21.8771 26.1532C22.037 26.2079 22.199 26.2322 22.3589 26.2322C22.9904 26.2322 23.5814 25.8315 23.7959 25.198ZM24.4216 31.5456C24.4216 30.4282 23.5168 29.5215 22.3974 29.5215H22.3772C21.2599 29.5215 20.363 30.4282 20.363 31.5456C20.363 32.6628 21.2802 33.5697 22.3974 33.5697C23.5148 33.5697 24.4216 32.6628 24.4216 31.5456Z" fill="white"/>
</svg>
